PathFileType  4	(X/Y/Z) C:\Users\antoi\Documents\MyRepositories\mobilecap\ResultsAnalysis
DataRate	CameraRate	NumFrames	NumMarkers	Units	OrigDataRate	OrigDataStartFrame	OrigNumFrames
100.0	100.0	6	51	mm	100.0	1	801
Frame#	Time	r_knee			r_shank_antsup			r_ankle			r_calc			r_5meta			r_toe			L_knee			L_shank_antsup			L_ankle			L_calc			L_5meta			L_toe			r_sh2			r_sh3			r_sh4			L_sh2			L_sh3			r_thigh1			r_thigh2			r_thigh3			r_thigh4			r_thigh5			L_thigh1			L_thigh2			L_thigh3			L_thigh4			r.ASIS			r.PSIS			L.ASIS			L.PSIS			C7			R_Shoulder			L_Shoulder			R_Sternum			L_Sternum			R_humerus			R_elbow_med			R_elbow_lat			R_forearm			R_wrist_radius			R_wrist_ulna			L_humerus			L_elbow_med			L_elbow_lat			L_forearm			L_wrist_radius			L_wrist_ulna			R_HJC			L_HJC			R_HJC_reg			L_HJC_reg			
		X1	Y1	Z1	X2	Y2	Z2	X3	Y3	Z3	X4	Y4	Z4	X5	Y5	Z5	X6	Y6	Z6	X7	Y7	Z7	X8	Y8	Z8	X9	Y9	Z9	X10	Y10	Z10	X11	Y11	Z11	X12	Y12	Z12	X13	Y13	Z13	X14	Y14	Z14	X15	Y15	Z15	X16	Y16	Z16	X17	Y17	Z17	X18	Y18	Z18	X19	Y19	Z19	X20	Y20	Z20	X21	Y21	Z21	X22	Y22	Z22	X23	Y23	Z23	X24	Y24	Z24	X25	Y25	Z25	X26	Y26	Z26	X27	Y27	Z27	X28	Y28	Z28	X29	Y29	Z29	X30	Y30	Z30	X31	Y31	Z31	X32	Y32	Z32	X33	Y33	Z33	X34	Y34	Z34	X35	Y35	Z35	X36	Y36	Z36	X37	Y37	Z37	X38	Y38	Z38	X39	Y39	Z39	X40	Y40	Z40	X41	Y41	Z41	X42	Y42	Z42	X43	Y43	Z43	X44	Y44	Z44	X45	Y45	Z45	X46	Y46	Z46	X47	Y47	Z47	X48	Y48	Z48	X49	Y49	Z49	X50	Y50	Z50	X51	Y51	Z51	

1	0.00000000	-217.51916	608.26739	-365.55021	-206.75445	464.43998	-349.66167	-292.88851	105.88930	-305.51667	-350.97821	74.00260	-366.24506	-158.72709	41.99895	-267.84978	-118.89538	65.62793	-320.82191	-244.48887	609.53065	-828.85285	-210.44755	415.50491	-841.76482	-305.42079	117.78806	-878.86042	-356.49103	75.46970	-818.12152	-165.40254	33.12854	-928.47845	-121.04497	64.72112	-872.28607	-217.95555	352.75215	-338.23666	-271.88846	473.80440	-313.50204	-285.93921	364.23666	-293.09284	-285.24782	436.54274	-885.69105	-301.34524	317.06242	-885.37299	-151.28331	898.96029	-376.37745	-148.87480	789.40707	-365.67528	-212.10612	765.23764	-354.67065	-260.46732	896.54726	-403.21334	-261.18543	780.46694	-377.85276	-147.77153	897.04352	-804.77065	-162.69146	764.37527	-817.11281	-254.71905	915.29942	-805.54616	-269.16727	777.91398	-826.13941	-91.54721	1174.50404	-464.34014	-282.50558	1197.62107	-541.24427	-115.44738	1165.31671	-739.97058	-290.01781	1202.02366	-630.43495	-276.02461	1679.81729	-602.26175	-191.78472	1648.21268	-428.32553	-219.54745	1658.50142	-777.91897	-123.06460	1616.00684	-577.46605	-124.37556	1618.00314	-628.63435	-195.42493	1381.41562	-348.44064	-279.02940	1259.96440	-381.51834	-269.11981	1284.20180	-309.69785	-112.73386	1133.30850	-299.11121	-48.21883	1063.77710	-305.19700	-74.26708	1050.43574	-280.53661	-199.02981	1366.00187	-843.77076	-280.25198	1280.13625	-794.39726	-258.96099	1280.79380	-870.33915	-128.50163	1119.06390	-888.27864	-77.50194	1055.83941	-878.68241	-105.11414	1047.30455	-900.63739	-169.28013	1076.32259	-495.30010	-191.91461	1075.05840	-691.47104	-159.03537	1077.16885	-502.93678	-174.35071	1086.14451	-684.77168	
2	0.01000000	-217.29786	608.52521	-365.09618	-206.66020	464.46348	-349.77923	-292.98008	105.93223	-305.47816	-350.95460	74.00873	-366.22228	-158.71648	42.00073	-267.84546	-118.90915	65.64945	-320.86627	-244.44779	609.51482	-828.91260	-210.34998	415.46230	-841.76752	-305.41452	117.80516	-878.85933	-356.51745	75.49246	-818.13107	-165.40280	33.13557	-928.48312	-121.04087	64.72174	-872.29067	-217.92605	352.70780	-338.22756	-271.81657	473.69697	-313.58710	-285.89582	364.17096	-293.14708	-285.15595	436.42971	-885.77254	-301.25784	317.09514	-885.64704	-151.42329	898.96198	-376.52730	-148.89439	789.48574	-365.76825	-212.22902	765.30717	-354.76521	-260.57928	896.52389	-403.40243	-261.28023	780.43417	-378.18143	-147.90362	897.12655	-804.92199	-162.75915	764.44474	-817.17942	-254.84499	915.45237	-805.81271	-269.21636	778.00810	-826.35475	-91.71842	1174.57562	-464.44086	-282.85833	1197.72758	-541.21176	-115.97127	1165.66832	-740.37272	-290.34434	1201.97190	-630.50393	-276.55377	1679.82576	-602.26809	-192.21719	1648.44176	-428.27521	-220.06425	1658.69404	-777.86948	-123.57560	1616.06444	-577.71390	-125.04132	1618.27639	-628.43357	-195.12953	1381.86708	-348.05390	-278.73686	1259.89813	-380.50071	-268.56147	1284.36706	-308.79595	-109.77241	1135.75184	-299.86273	-44.47995	1066.97614	-306.46632	-69.97838	1053.37136	-281.64682	-199.19014	1366.47124	-844.53398	-280.40996	1280.10594	-795.45951	-258.80453	1281.00580	-871.33941	-125.95379	1121.09855	-888.52095	-74.27141	1058.53079	-877.86682	-101.28459	1050.20408	-900.60252	-169.41803	1076.38083	-495.55601	-192.26494	1075.26423	-691.70317	-159.49324	1077.51518	-502.93027	-174.75838	1086.16999	-684.99786	
3	0.02000000	-217.05889	608.90407	-364.50001	-206.55401	464.43807	-349.87200	-292.95594	105.93345	-305.48200	-350.94265	74.02233	-366.20092	-158.71447	41.98851	-267.86298	-118.91191	65.64598	-320.85962	-244.41979	609.52314	-828.97563	-210.25851	415.43012	-841.78583	-305.40057	117.81581	-878.86730	-356.50747	75.48368	-818.12736	-165.39885	33.14929	-928.48768	-121.06052	64.69077	-872.24022	-217.83256	352.65344	-338.25367	-271.65765	473.67269	-313.69633	-285.81988	364.13717	-293.26482	-285.10315	436.34823	-885.86724	-301.14549	317.02776	-885.73629	-151.57776	899.03845	-376.66226	-149.05183	789.58343	-365.82174	-212.33995	765.36648	-354.82880	-260.76799	896.54802	-403.53385	-261.37182	780.40542	-378.40156	-148.02453	897.25552	-805.13255	-162.83077	764.48165	-817.26603	-254.93224	915.52250	-805.94820	-269.28981	778.04500	-826.53285	-92.00211	1174.58438	-464.62013	-283.31479	1197.87508	-540.96513	-116.19164	1165.63382	-740.48287	-290.68512	1201.95596	-630.55318	-277.06567	1679.81312	-602.34820	-192.58702	1648.63878	-428.34932	-220.56893	1658.87826	-777.92311	-124.13775	1616.16517	-577.90353	-125.65378	1618.52873	-628.37968	-194.82763	1382.32386	-347.61496	-278.40391	1259.94556	-379.60512	-267.91866	1284.59903	-307.94348	-106.81911	1138.27604	-300.61990	-40.38571	1070.33457	-308.03237	-65.59661	1056.50918	-282.91337	-199.33457	1366.94657	-845.28295	-280.71125	1280.15002	-796.74708	-258.61431	1281.35789	-872.63677	-123.35131	1123.13840	-888.44002	-70.89974	1061.46199	-876.96271	-97.49427	1052.94309	-900.24911	-169.73209	1076.42478	-495.56254	-192.65348	1075.26617	-691.70087	-160.07612	1077.82396	-502.98322	-175.05536	1086.11804	-685.04287	
4	0.03000000	-216.87417	609.18559	-364.22672	-206.45882	464.41674	-349.92872	-292.87728	105.95116	-305.50974	-350.93697	74.04570	-366.18391	-158.72174	42.00218	-267.87693	-118.90658	65.63392	-320.82171	-244.40156	609.55116	-829.05371	-210.18020	415.40040	-841.81637	-305.39713	117.80500	-878.86662	-356.49403	75.46831	-818.12535	-165.39391	33.16205	-928.48308	-121.07173	64.67070	-872.20131	-217.71291	352.63595	-338.31021	-271.44488	473.69727	-313.80155	-285.68533	364.18552	-293.38210	-285.04976	436.30438	-885.96724	-301.03015	316.96809	-885.80919	-151.71890	899.06411	-376.90833	-149.26823	789.70462	-365.85650	-212.44279	765.41069	-354.90398	-261.02429	896.61384	-403.63364	-261.45017	780.39956	-378.51676	-148.13787	897.38767	-805.31875	-162.91521	764.51622	-817.35976	-255.02955	915.54251	-806.03492	-269.38037	778.02666	-826.66398	-92.40063	1174.60352	-464.84978	-283.79217	1197.95351	-540.80904	-116.33025	1165.79189	-740.51117	-291.06347	1201.93655	-630.69699	-277.54978	1679.80877	-602.43404	-192.91006	1648.82672	-428.47739	-221.01325	1659.03913	-778.03791	-124.71535	1616.28377	-578.09690	-126.27294	1618.74871	-628.39135	-194.46653	1382.78957	-347.06523	-278.11653	1259.94763	-378.55199	-267.20964	1284.91623	-306.95581	-103.74990	1140.96234	-301.53418	-36.04545	1074.11075	-309.90983	-61.05438	1059.88176	-284.41066	-199.40110	1367.39852	-846.08750	-281.07836	1280.26255	-798.21904	-258.39834	1281.73872	-874.10387	-120.63929	1125.27659	-888.01205	-67.35443	1064.60506	-875.98379	-93.60726	1055.62220	-899.57279	-170.05705	1076.45000	-495.66768	-192.93024	1075.37160	-691.81187	-160.59275	1078.16535	-503.13456	-175.30998	1086.22724	-685.07602	
5	0.04000000	-216.77565	609.24104	-364.42114	-206.38232	464.42771	-349.96400	-292.87946	106.02774	-305.51154	-350.92931	74.06690	-366.16654	-158.73535	42.04909	-267.87404	-118.89246	65.62453	-320.80266	-244.37661	609.56481	-829.13461	-210.11383	415.37316	-841.83965	-305.40085	117.77754	-878.86297	-356.50610	75.47285	-818.13210	-165.39248	33.16738	-928.46930	-121.04608	64.70084	-872.23610	-217.64446	352.66217	-338.35475	-271.28570	473.73298	-313.84926	-285.52366	364.31577	-293.43978	-284.94878	436.28684	-886.06333	-300.95304	317.02293	-886.00632	-151.88498	898.96759	-377.20088	-149.37262	789.80894	-365.90875	-212.54776	765.47808	-354.98845	-261.28265	896.68759	-403.71251	-261.52866	780.40510	-378.60666	-148.26736	897.48079	-805.38579	-163.01087	764.60293	-817.44866	-255.19195	915.55633	-806.16313	-269.46034	778.01116	-826.79183	-92.81363	1174.74803	-465.07018	-284.26431	1197.89899	-540.93468	-116.68426	1166.48972	-740.51973	-291.48530	1201.88833	-630.99509	-278.00363	1679.83299	-602.46640	-193.20114	1649.02428	-428.60120	-221.40845	1659.16907	-778.10104	-125.23776	1616.37506	-578.34887	-126.90562	1618.90910	-628.38834	-194.04713	1383.28021	-346.36453	-277.98213	1259.84543	-377.36600	-266.45188	1285.29749	-305.76258	-100.51591	1143.85856	-302.62378	-31.69521	1078.37400	-311.84579	-56.38678	1063.51098	-286.09235	-199.36532	1367.83237	-847.03548	-281.36372	1280.39165	-799.71491	-258.15446	1282.05409	-875.56048	-117.76442	1127.64475	-887.50064	-63.62340	1067.92400	-874.94583	-89.50039	1058.48572	-898.71485	-170.25883	1076.50519	-496.03057	-193.04171	1075.75444	-692.18667	-160.94637	1078.59108	-503.37286	-175.52234	1086.64392	-685.17172	
6	0.05000000	-216.70893	609.22851	-364.65111	-206.28308	464.42796	-350.01207	-292.94250	106.09900	-305.48872	-350.91941	74.07683	-366.14302	-158.74381	42.07278	-267.87717	-118.86358	65.61413	-320.80959	-244.32950	609.55205	-829.18748	-210.03389	415.35057	-841.84933	-305.37987	117.75711	-878.89376	-356.51749	75.48600	-818.13221	-165.39210	33.17120	-928.45784	-121.00994	64.72723	-872.27487	-217.62045	352.68201	-338.35625	-271.21323	473.81423	-313.84075	-285.42919	364.44137	-293.45272	-284.81659	436.26898	-886.16380	-300.88988	317.10150	-886.18559	-152.18029	899.00841	-377.20987	-149.37256	789.90882	-365.95680	-212.66287	765.58424	-355.01280	-261.52680	896.74308	-403.73300	-261.62764	780.38384	-378.72208	-148.42473	897.54817	-805.35712	-163.10627	764.72726	-817.53132	-255.40372	915.56430	-806.28563	-269.50622	778.03266	-826.96383	-93.22487	1174.97998	-465.26130	-284.81810	1197.79668	-541.13398	-117.24308	1166.91601	-740.22161	-291.92441	1201.83486	-631.33791	-278.43860	1679.87736	-602.53414	-193.44275	1649.19362	-428.76612	-221.81893	1659.29682	-778.07861	-125.73319	1616.44416	-578.57656	-127.47047	1618.98509	-628.44996	-193.65920	1383.79234	-345.52038	-277.94012	1259.80853	-376.35989	-265.66052	1285.67805	-304.50225	-97.24079	1146.97791	-303.65103	-27.33868	1082.93845	-313.59779	-51.66611	1067.39559	-287.96245	-199.33697	1368.30058	-848.05797	-281.55219	1280.51721	-801.18697	-257.82057	1282.39892	-877.08075	-114.70050	1130.29853	-887.11892	-59.67505	1071.51985	-873.82564	-85.15914	1061.65497	-897.75745	-170.57869	1076.62048	-496.19591	-193.25689	1075.95000	-692.36445	-161.36604	1078.88882	-503.61596	-175.66533	1087.01431	-685.11500	
